<?xml version="1.0" encoding="UTF-8" standalone="no"?>
<svg
   width="128"
   height="128"
   viewBox="0 0 128 128"
   version="1.1"
   id="svg880"
   sodipodi:docname="app_original.svg"
   inkscape:version="1.1.2 (b8e25be833, 2022-02-05)"
   xmlns:inkscape="http://www.inkscape.org/namespaces/inkscape"
   xmlns:sodipodi="http://sodipodi.sourceforge.net/DTD/sodipodi-0.dtd"
   xmlns="http://www.w3.org/2000/svg"
   xmlns:svg="http://www.w3.org/2000/svg">
  <sodipodi:namedview
     id="namedview882"
     pagecolor="#ffffff"
     bordercolor="#666666"
     borderopacity="1.0"
     inkscape:pageshadow="2"
     inkscape:pageopacity="0.0"
     inkscape:pagecheckerboard="true"
     showgrid="false"
     fit-margin-top="0"
     fit-margin-left="0"
     fit-margin-right="0"
     fit-margin-bottom="0"
     units="px"
     scale-x="1"
     inkscape:zoom="8.2545455"
     inkscape:cx="59.603524"
     inkscape:cy="78.986784"
     inkscape:window-width="3840"
     inkscape:window-height="2054"
     inkscape:window-x="-11"
     inkscape:window-y="-11"
     inkscape:window-maximized="1"
     inkscape:current-layer="svg880" />
  <defs
     id="defs873">
    <filter
       id="wave"
       x="0"
       y="0"
       width="1"
       height="1">
      <feTurbulence
         type="fractalNoise"
         baseFrequency="0.005"
         numOctaves="5"
         result="turbulence"
         id="feTurbulence854" />
      <feDisplacementMap
         in2="turbulence"
         in="SourceGraphic"
         scale="10"
         xChannelSelector="R"
         yChannelSelector="G"
         id="feDisplacementMap856" />
    </filter>
    <linearGradient
       id="linear0"
       gradientUnits="userSpaceOnUse"
       x1="401.5733"
       y1="749.99933"
       x2="1098.431"
       y2="749.99933"
       gradientTransform="matrix(0.170996,0,0,0.170996,9.255705,-42.504288)">
      <stop
         offset="0"
         style="stop-color:rgb(29.019608%,31.764706%,58.431373%);stop-opacity:1;"
         id="stop859" />
      <stop
         offset="0.4806"
         style="stop-color:rgb(65.490196%,17.254902%,50.196078%);stop-opacity:1;"
         id="stop861" />
      <stop
         offset="0.8333"
         style="stop-color:rgb(89.803922%,7.843137%,44.705882%);stop-opacity:1;"
         id="stop863" />
      <stop
         offset="1"
         style="stop-color:rgb(99.215686%,3.921569%,42.352941%);stop-opacity:1;"
         id="stop865" />
    </linearGradient>
    <linearGradient
       id="linear1"
       gradientUnits="userSpaceOnUse"
       x1="401.56891"
       y1="750"
       x2="1091.2928"
       y2="750"
       gradientTransform="matrix(0.170996,0,0,0.170996,9.255705,-42.504288)">
      <stop
         offset="0"
         style="stop-color:rgb(0%,100%,65.490196%);stop-opacity:1;"
         id="stop868" />
      <stop
         offset="1"
         style="stop-color:rgb(5.490196%,30.196078%,99.215686%);stop-opacity:1;"
         id="stop870" />
    </linearGradient>
  </defs>
  <g
     id="surface1"
     transform="translate(-73.560123,-22.028563)">
    <path
       style="fill:url(#linear0);fill-rule:nonzero;stroke:none"
       d="m 194.12109,91.695312 c -0.32422,1.058594 -1.3164,1.84375 -2.48047,1.84375 -1.4375,0 -2.59765,-1.160156 -2.59765,-2.597656 0,-1.4375 1.16015,-2.597656 2.59765,-2.597656 1.17969,0 2.15625,0.769531 2.48047,1.84375 h 2.1875 c 0.48047,-1.828125 0.73438,-3.726562 0.76953,-5.625 h -1.14453 c -0.32422,1.0625 -1.3164,1.847656 -2.48047,1.847656 -1.4375,0 -2.59765,-1.164062 -2.59765,-2.597656 0,-1.4375 1.16015,-2.601562 2.59765,-2.601562 1.17969,0 2.15625,0.769531 2.48047,1.847656 h 1.12891 c -0.0703,-1.933594 -0.37891,-3.832032 -0.92578,-5.625 h -3.33203 c -0.32813,1.058594 -1.31641,1.84375 -2.48047,1.84375 -1.4375,0 -2.60156,-1.160156 -2.60156,-2.597656 0,-1.4375 1.16406,-2.597657 2.60156,-2.597657 1.17969,0 2.15234,0.769531 2.48047,1.847657 h 2.82031 c -0.83984,-2.121094 -2.01953,-4.039063 -3.58984,-5.628907 h -6.97657 c -0.32812,1.0625 -1.3164,1.847657 -2.48047,1.847657 -1.4375,0 -2.60156,-1.164063 -2.60156,-2.597657 0,-1.4375 1.16406,-2.601562 2.60156,-2.601562 1.17969,0 2.15235,0.769531 2.48047,1.847656 h 5.23047 c -1.84765,-1.367187 -4.07031,-2.34375 -6.70312,-2.785156 -5.91407,-0.875 -11.50782,1.347656 -16.44922,4.324219 -0.63281,0.375 -1.58985,1.007812 -2.20703,1.417968 -0.39063,0.308594 -0.9375,0.738282 -1.31641,1.042969 l -0.23828,0.207031 -0.94141,0.804688 c -2.27343,2 -4.51562,4.273437 -6.68359,6.546875 -3.4375,-3.933594 -6.75781,-7.984375 -10.27734,-11.832031 -3.86719,-4.222657 -8.08985,-8.15625 -12.84375,-11.386719 -1.21485,-0.839844 -2.54688,-1.695313 -3.84766,-2.429688 -0.63281,-0.34375 -1.24609,-0.71875 -1.92969,-1.027343 -0.35937,-0.167969 -1.01172,-0.441407 -1.35156,-0.578126 -13.13281,-5.660156 -26.042969,-2.035156 -35.089844,7.113282 h 11.097654 c 0.32422,-1.0625 1.31641,-1.847656 2.48047,-1.847656 1.4375,0 2.59766,1.160156 2.59766,2.597656 0,1.4375 -1.16016,2.601562 -2.59766,2.601562 -1.17969,0 -2.15625,-0.769531 -2.48047,-1.847656 H 88.992188 c -1.523438,1.710938 -2.90625,3.589844 -4.15625,5.625 h 4.171874 c 0.324219,-1.058594 1.316407,-1.847656 2.480469,-1.847656 1.4375,0 2.597657,1.164062 2.597657,2.601562 0,1.433594 -1.160157,2.597656 -2.597657,2.597656 -1.179687,0 -2.15625,-0.769531 -2.480469,-1.847656 h -5.0625 c -0.222656,0.394532 -0.425781,0.769532 -0.632812,1.179688 -0.75,1.453125 -1.433594,2.941406 -2.050781,4.464844 h 12.378906 c 0.328125,-1.0625 1.320313,-1.847657 2.480469,-1.847657 1.4375,0 2.601562,1.164063 2.601562,2.597657 0,1.4375 -1.164062,2.601562 -2.601562,2.601562 -1.179688,0 -2.152344,-0.769531 -2.480469,-1.847656 H 80.699219 c -0.667969,1.847656 -1.214844,3.726562 -1.644531,5.625 h 7.421874 c 0.324219,-1.058594 1.316407,-1.847656 2.480469,-1.847656 1.4375,0 2.597657,1.164062 2.597657,2.601562 0,1.4375 -1.160157,2.597656 -2.597657,2.597656 -1.179687,0 -2.15625,-0.769531 -2.480469,-1.847656 H 78.75 c -0.359375,1.867188 -0.601562,3.730469 -0.71875,5.628906 h 3.25 c 0.324219,-1.0625 1.316406,-1.847656 2.476562,-1.847656 1.4375,0 2.601563,1.164062 2.601563,2.597656 0,1.4375 -1.164063,2.601563 -2.601563,2.601563 -1.179687,0 -2.152343,-0.769531 -2.476562,-1.847657 h -3.320312 c -0.06641,1.863282 0.01953,3.761719 0.242187,5.625 h 9.710937 c 0.324219,-1.058593 1.316407,-1.847656 2.480469,-1.847656 1.433594,0 2.597657,1.164063 2.597657,2.601563 0,1.433593 -1.164063,2.597656 -2.597657,2.597656 -1.179687,0 -2.15625,-0.769531 -2.480469,-1.847656 h -9.492187 c 1.457031,8.875001 6.226563,17.218751 14.777344,21.171871 8.070311,3.87891 18.074221,2.83594 25.957031,-0.44531 2.61328,-1.0625 5.09375,-2.34375 7.50391,-3.72656 1.89843,-1.19922 3.83203,-2.55078 5.6289,-3.90234 6.39453,-4.78516 12.29297,-10.25782 17.96875,-15.79688 1.79688,-1.746094 3.625,-3.574219 5.49219,-5.386719 2.75,2.410157 5.60547,4.855469 7.96484,6.703125 2.41407,2.238282 4.91016,4.273434 7.83203,5.898434 0.32813,0.17188 0.82032,0.46094 1.14844,0.61719 l 1.19531,0.54688 c 0.41016,0.16797 0.83985,0.32422 1.26563,0.47656 0.1875,0.0859 0.44531,0.13672 0.64844,0.20703 8.60156,2.73438 15.9375,-2.22266 19.30859,-10.125 0.28906,-0.648438 0.54688,-1.332031 0.76953,-2.015625 h -1.76172 z m -62.96093,8.050782 c -2.94141,1.351566 -5.98438,2.531246 -9.08203,3.507816 -0.25391,0.0859 -0.71875,0.23828 -0.95704,0.28906 -1.8789,0.48047 -4.10156,1.00781 -5.96875,1.31641 -3.76171,0.61718 -7.16406,0.99218 -10.63281,0.32421 -1.64453,-0.33984 -3.26953,-0.98828 -4.5,-2.11718 -1.86328,-1.69532 -2.753905,-4.03516 -3.230468,-6.53516 C 95.011719,86.238281 99.882812,72.714844 108.91406,67 c 4.20313,-2.597656 9.28516,-2.855469 14.08985,-1.332031 l 0.41015,0.136719 0.20313,0.07031 c 1.64062,0.664062 3.25,1.382812 4.82422,2.273438 7.72656,4.324218 14.5,10.054687 21.20312,15.832031 0.44531,0.378906 0.90625,0.789062 1.36719,1.199219 -5.84766,5.898437 -12.3125,11.128906 -19.85156,14.566406 z m 53.86328,-4.238282 c -4.39453,5.453128 -11.54297,1.761719 -15.9375,-2.121093 -0.44532,-0.375 -1.25,-1.144531 -1.67578,-1.539063 -2.54688,-2.070312 -4.92579,-4.308594 -7.1836,-6.667968 1.12891,-1.011719 2.25781,-1.96875 3.38672,-2.875 1.69531,-1.332032 3.38672,-2.582032 5.21484,-3.65625 l 0.41016,-0.242188 c 0.32813,-0.152344 0.99219,-0.460938 1.33594,-0.613281 l 0.22265,-0.105469 0.23829,-0.101562 c 0,0 0.48046,-0.203126 0.48046,-0.203126 0.57813,-0.257812 1.29688,-0.53125 1.89844,-0.753906 1.48438,-0.5625 3.14453,-0.992187 4.61328,-1.214844 2.89063,-0.445312 5.76563,-0.101562 7.62891,2.273438 3.46875,4.585938 2.94141,13.40625 -0.63281,17.820312 z m 0,0"
       id="path875" />
    <path
       style="fill:url(#linear1);fill-rule:nonzero;stroke:none"
       d="m 195.74609,91.695312 c -3.16406,7.386719 -12.26172,10.667968 -19.54687,6.410157 l -3.25,-1.898438 -0.0156,-0.01563 c -1.40234,-0.820312 -2.71875,-1.8125 -3.86328,-2.804687 -0.44531,-0.375 -1.25,-1.144531 -1.67578,-1.539063 -2.55078,-2.070312 -4.92578,-4.308594 -7.18359,-6.667968 -1.52344,-1.589844 -3.00782,-3.234376 -4.46094,-4.910157 -3.4375,-3.929687 -6.75781,-7.984375 -10.27734,-11.832031 -3.86719,-4.222656 -8.08985,-8.15625 -12.84375,-11.386719 -1.21485,-0.839843 -2.54688,-1.695312 -3.84766,-2.429687 -0.63281,-0.339844 -1.24609,-0.71875 -1.92969,-1.007813 -0.3594,-0.17187 -1.01175,-0.445307 -1.35159,-0.582026 -13.13281,-5.589844 -26.042969,-1.964844 -35.089844,7.183594 h 11.097654 c 0.32422,-1.0625 1.31641,-1.847656 2.48047,-1.847656 1.4375,0 2.59766,1.160156 2.59766,2.597656 0,1.4375 -1.16016,2.601562 -2.59766,2.601562 -1.17969,0 -2.15625,-0.769531 -2.48047,-1.847656 H 88.992188 c -1.523438,1.710938 -2.90625,3.589844 -4.15625,5.625 h 4.171874 c 0.324219,-1.058594 1.316407,-1.847656 2.480469,-1.847656 1.4375,0 2.597657,1.164062 2.597657,2.601562 0,1.433594 -1.160157,2.597656 -2.597657,2.597656 -1.179687,0 -2.15625,-0.769531 -2.480469,-1.847656 h -5.0625 c -0.222656,0.394532 -0.425781,0.769532 -0.632812,1.179688 -0.75,1.453125 -1.433594,2.941406 -2.050781,4.464844 h 12.378906 c 0.328125,-1.0625 1.320313,-1.847657 2.480469,-1.847657 1.4375,0 2.601562,1.164063 2.601562,2.597657 0,1.4375 -1.164062,2.601562 -2.601562,2.601562 -1.179688,0 -2.152344,-0.769531 -2.480469,-1.847656 H 80.699219 c -0.667969,1.847656 -1.214844,3.726562 -1.644531,5.625 h 7.421874 c 0.324219,-1.058594 1.316407,-1.847656 2.480469,-1.847656 1.4375,0 2.597657,1.164062 2.597657,2.601562 0,1.4375 -1.160157,2.597656 -2.597657,2.597656 -1.179687,0 -2.15625,-0.769531 -2.480469,-1.847656 H 78.75 c -0.359375,1.867188 -0.601562,3.730469 -0.71875,5.628906 h 3.25 c 0.324219,-1.0625 1.316406,-1.847656 2.476562,-1.847656 1.4375,0 2.601563,1.164062 2.601563,2.597656 0,1.4375 -1.164063,2.601563 -2.601563,2.601563 -1.179687,0 -2.152343,-0.769531 -2.476562,-1.847657 h -3.335938 c -0.07031,1.863282 0.01563,3.761719 0.238282,5.625 h 9.714844 c 0.324218,-1.058593 1.316406,-1.847656 2.476562,-1.847656 1.4375,0 2.601562,1.164063 2.601562,2.601563 0,1.433593 -1.164062,2.597656 -2.601562,2.597656 -1.179688,0 -2.152344,-0.769531 -2.476562,-1.847656 H 78.40625 c 1.453125,8.875001 6.226562,17.218751 14.792969,21.171871 8.070311,3.87891 18.074221,2.83594 25.957031,-0.44531 2.28906,-0.92578 4.48047,-2.01953 6.59766,-3.21484 -15.78125,8.78906 -34.523441,-5.47266 -30.195316,-23.066409 l 1.8125,-7.40625 c 1.742187,-7.097656 5.796876,-13.867187 11.542966,-17.492187 4.20313,-2.597656 9.28516,-2.855469 14.08985,-1.335938 l 0.41015,0.140625 0.20313,0.06641 c 1.64062,0.667968 3.25,1.386718 4.82422,2.273437 7.72656,4.328125 14.5,10.054687 21.20312,15.835937 0.44531,0.375 0.88672,0.785157 1.36719,1.195313 1.46875,1.300781 3.09375,2.738281 4.73828,4.171875 2.76953,2.414062 5.60547,4.859375 7.96484,6.703125 2.41407,2.242187 4.91016,4.277342 7.83203,5.902342 0.32813,0.16797 0.82032,0.46094 1.14844,0.61328 l 1.19531,0.54688 c 0.41016,0.17187 0.83985,0.32421 1.26563,0.48046 0.1875,0.0859 0.44531,0.13672 0.64844,0.20313 8.60156,2.71875 15.9375,-2.22266 19.30859,-10.121092 0.28906,-0.648437 0.54688,-1.335937 0.76953,-2.019531 h -0.13672 z m 0,0"
       id="path877" />
    <!-- <path style=" stroke:none;fill-rule:nonzero;fill:rgb(0%,98.431373%,66.27451%);fill-opacity:1;" d="M 54.132812 133.199219 L 46.640625 133.199219 C 46.460938 133.199219 46.300781 133.355469 46.300781 133.542969 L 46.300781 136.714844 C 46.300781 136.898438 46.460938 137.058594 46.640625 137.058594 L 48.34375 137.058594 L 48.34375 145.230469 L 46.640625 145.230469 C 46.460938 145.230469 46.300781 145.390625 46.300781 145.570312 L 46.300781 148.75 C 46.300781 148.929688 46.460938 149.089844 46.640625 149.089844 L 48.34375 149.089844 L 48.34375 149.113281 L 52.429688 149.113281 L 52.429688 149.089844 L 54.132812 149.089844 C 54.3125 149.089844 54.496094 148.929688 54.496094 148.75 L 54.496094 145.570312 C 54.496094 145.390625 54.3125 145.230469 54.132812 145.230469 L 52.429688 145.230469 L 52.429688 137.058594 L 54.132812 137.058594 C 54.3125 137.058594 54.496094 136.898438 54.496094 136.714844 L 54.496094 133.542969 C 54.496094 133.355469 54.3125 133.199219 54.132812 133.199219 Z M 71.089844 148.75 L 71.089844 145.117188 L 71.132812 145.117188 L 71.089844 145.050781 L 71.089844 133.542969 C 71.089844 133.355469 70.929688 133.179688 70.746094 133.179688 L 67.339844 133.179688 C 67.164062 133.179688 67.003906 133.355469 67.003906 133.542969 L 67.003906 139.125 L 63.007812 133.335938 C 62.9375 133.246094 62.824219 133.179688 62.714844 133.179688 L 59.148438 133.179688 C 58.964844 133.179688 58.804688 133.355469 58.804688 133.542969 L 58.804688 148.75 C 58.804688 148.929688 58.964844 149.113281 59.148438 149.113281 L 62.554688 149.113281 C 62.734375 149.113281 62.890625 148.929688 62.890625 148.75 L 62.890625 139.125 L 67.003906 145.050781 L 67.003906 148.75 C 67.003906 148.929688 67.164062 149.113281 67.339844 149.113281 L 70.746094 149.113281 C 70.929688 149.113281 71.089844 148.929688 71.089844 148.75 Z M 85.34375 133.199219 L 75.789062 133.199219 C 75.609375 133.199219 75.449219 133.355469 75.449219 133.542969 L 75.449219 148.773438 C 75.449219 148.953125 75.609375 149.113281 75.789062 149.113281 L 79.195312 149.113281 C 79.375 149.113281 79.535156 148.953125 79.535156 148.773438 L 79.535156 143.597656 L 83.277344 143.597656 C 83.457031 143.597656 83.644531 143.4375 83.644531 143.257812 L 83.644531 140.074219 C 83.644531 139.898438 83.457031 139.738281 83.277344 139.738281 L 79.535156 139.738281 L 79.535156 137.058594 L 85.34375 137.058594 C 85.527344 137.058594 85.6875 136.898438 85.6875 136.714844 L 85.6875 133.542969 C 85.6875 133.355469 85.527344 133.199219 85.34375 133.199219 Z M 97.832031 133.199219 L 90.339844 133.199219 C 90.15625 133.199219 90 133.355469 90 133.542969 L 90 136.714844 C 90 136.898438 90.15625 137.058594 90.339844 137.058594 L 92.042969 137.058594 L 92.042969 145.230469 L 90.339844 145.230469 C 90.15625 145.230469 90 145.390625 90 145.570312 L 90 148.75 C 90 148.929688 90.15625 149.089844 90.339844 149.089844 L 92.042969 149.089844 L 92.042969 149.113281 L 96.128906 149.113281 L 96.128906 149.089844 L 97.832031 149.089844 C 98.011719 149.089844 98.195312 148.929688 98.195312 148.75 L 98.195312 145.570312 C 98.195312 145.390625 98.011719 145.230469 97.832031 145.230469 L 96.128906 145.230469 L 96.128906 137.058594 L 97.832031 137.058594 C 98.011719 137.058594 98.195312 136.898438 98.195312 136.714844 L 98.195312 133.542969 C 98.195312 133.355469 98.011719 133.199219 97.832031 133.199219 Z M 114.789062 148.75 L 114.789062 145.117188 L 114.835938 145.117188 L 114.789062 145.050781 L 114.789062 133.542969 C 114.789062 133.355469 114.628906 133.179688 114.449219 133.179688 L 111.042969 133.179688 C 110.859375 133.179688 110.699219 133.355469 110.699219 133.542969 L 110.699219 139.125 L 106.710938 133.335938 C 106.640625 133.246094 106.527344 133.179688 106.410156 133.179688 L 102.84375 133.179688 C 102.664062 133.179688 102.507812 133.355469 102.507812 133.542969 L 102.507812 148.75 C 102.507812 148.929688 102.664062 149.113281 102.84375 149.113281 L 106.25 149.113281 C 106.433594 149.113281 106.59375 148.929688 106.59375 148.75 L 106.59375 139.125 L 110.699219 145.050781 L 110.699219 148.75 C 110.699219 148.929688 110.859375 149.113281 111.042969 149.113281 L 114.449219 149.113281 C 114.628906 149.113281 114.789062 148.929688 114.789062 148.75 Z M 126.980469 133.199219 L 119.488281 133.199219 C 119.304688 133.199219 119.148438 133.355469 119.148438 133.542969 L 119.148438 136.714844 C 119.148438 136.898438 119.304688 137.058594 119.488281 137.058594 L 121.1875 137.058594 L 121.1875 145.230469 L 119.488281 145.230469 C 119.304688 145.230469 119.148438 145.390625 119.148438 145.570312 L 119.148438 148.75 C 119.148438 148.929688 119.304688 149.089844 119.488281 149.089844 L 121.1875 149.089844 L 121.1875 149.113281 L 125.273438 149.113281 L 125.273438 149.089844 L 126.980469 149.089844 C 127.160156 149.089844 127.34375 148.929688 127.34375 148.75 L 127.34375 145.570312 C 127.34375 145.390625 127.160156 145.230469 126.980469 145.230469 L 125.273438 145.230469 L 125.273438 137.058594 L 126.980469 137.058594 C 127.160156 137.058594 127.34375 136.898438 127.34375 136.714844 L 127.34375 133.542969 C 127.34375 133.355469 127.160156 133.199219 126.980469 133.199219 Z M 131.992188 137.058594 L 135.742188 137.058594 L 135.742188 148.773438 C 135.742188 148.953125 135.898438 149.113281 136.082031 149.113281 L 139.484375 149.113281 C 139.667969 149.113281 139.847656 148.953125 139.847656 148.773438 L 139.847656 137.058594 L 143.597656 137.058594 C 143.777344 137.058594 143.933594 136.898438 143.933594 136.714844 L 143.933594 133.542969 C 143.933594 133.355469 143.777344 133.199219 143.597656 133.199219 L 131.992188 133.199219 C 131.8125 133.199219 131.65625 133.355469 131.65625 133.542969 L 131.65625 136.714844 C 131.65625 136.898438 131.8125 137.058594 131.992188 137.058594 Z M 156.445312 133.542969 L 156.445312 138.785156 L 154.378906 142.007812 L 152.335938 138.785156 L 152.335938 133.542969 C 152.335938 133.355469 152.175781 133.199219 151.996094 133.199219 L 148.589844 133.199219 C 148.410156 133.199219 148.246094 133.355469 148.246094 133.542969 L 148.246094 138.667969 C 148.246094 138.738281 148.246094 138.808594 148.292969 138.855469 L 152.289062 145.140625 C 152.335938 145.1875 152.335938 145.257812 152.335938 145.320312 L 152.335938 149.113281 L 156.445312 149.113281 L 156.445312 145.320312 C 156.445312 145.257812 156.445312 145.1875 156.492188 145.140625 L 160.460938 138.855469 C 160.507812 138.808594 160.53125 138.738281 160.53125 138.667969 L 160.53125 133.542969 C 160.53125 133.355469 160.371094 133.199219 160.1875 133.199219 L 156.785156 133.199219 C 156.601562 133.199219 156.445312 133.355469 156.445312 133.542969 Z M 174.742188 133.199219 L 165.183594 133.199219 C 165 133.199219 164.84375 133.355469 164.84375 133.542969 L 164.84375 148.773438 C 164.84375 148.953125 165 149.113281 165.183594 149.113281 L 168.589844 149.113281 C 168.769531 149.113281 168.929688 148.953125 168.929688 148.773438 L 168.929688 143.597656 L 172.679688 143.597656 C 172.859375 143.597656 173.039062 143.4375 173.039062 143.257812 L 173.039062 140.074219 C 173.039062 139.898438 172.859375 139.738281 172.679688 139.738281 L 168.929688 139.738281 L 168.929688 137.058594 L 174.742188 137.058594 C 174.925781 137.058594 175.082031 136.898438 175.082031 136.714844 L 175.082031 133.542969 C 175.082031 133.355469 174.925781 133.199219 174.742188 133.199219 Z M 187.589844 141.507812 L 187.589844 145.230469 L 183.480469 145.230469 L 183.480469 133.542969 C 183.480469 133.355469 183.324219 133.199219 183.140625 133.199219 L 179.738281 133.199219 C 179.554688 133.199219 179.394531 133.355469 179.394531 133.542969 L 179.394531 148.773438 C 179.394531 148.953125 179.554688 149.113281 179.738281 149.113281 L 183.480469 149.113281 L 183.480469 149.089844 L 191.335938 149.089844 C 191.515625 149.089844 191.675781 148.929688 191.675781 148.75 L 191.675781 141.507812 C 191.675781 141.328125 191.515625 141.164062 191.335938 141.164062 L 187.929688 141.164062 C 187.746094 141.164062 187.589844 141.328125 187.589844 141.507812 Z M 206.226562 133.199219 L 198.035156 133.199219 C 196.898438 133.199219 195.992188 134.132812 195.992188 135.265625 L 195.992188 147.046875 C 195.992188 148.183594 196.917969 149.113281 198.054688 149.113281 L 200.078125 149.113281 L 200.078125 149.089844 L 204.183594 149.089844 L 204.183594 149.113281 L 206.207031 149.113281 C 207.339844 149.113281 208.269531 148.183594 208.269531 147.046875 L 208.269531 135.265625 C 208.269531 134.132812 207.363281 133.199219 206.226562 133.199219 Z M 200.078125 144.886719 L 200.078125 137.402344 C 200.078125 137.214844 200.234375 137.058594 200.414062 137.058594 L 203.820312 137.058594 C 204 137.058594 204.183594 137.214844 204.183594 137.402344 L 204.183594 144.886719 C 204.183594 145.074219 204 145.230469 203.820312 145.230469 L 200.414062 145.230469 C 200.234375 145.230469 200.078125 145.074219 200.078125 144.886719 Z M 224.820312 133.542969 L 224.820312 143.1875 L 224.414062 144.164062 L 222.527344 139.238281 C 222.480469 139.101562 222.34375 139.011719 222.207031 139.011719 L 219.300781 139.011719 C 219.167969 139.011719 219.03125 139.101562 218.984375 139.238281 L 217.101562 144.164062 L 216.667969 143.1875 L 216.667969 133.542969 C 216.667969 133.355469 216.511719 133.199219 216.332031 133.199219 L 212.925781 133.199219 C 212.742188 133.199219 212.582031 133.355469 212.582031 133.542969 L 212.582031 143.121094 C 212.582031 143.164062 212.582031 143.210938 212.609375 143.257812 L 215.125 148.910156 C 215.171875 149.019531 215.308594 149.113281 215.441406 149.113281 L 219.328125 149.113281 L 219.300781 149.089844 L 219.328125 149.089844 L 220.753906 144.230469 L 222.1875 149.089844 L 222.207031 149.089844 L 222.1875 149.113281 L 226.066406 149.113281 C 226.203125 149.113281 226.320312 149.019531 226.363281 148.910156 L 228.882812 143.257812 C 228.90625 143.210938 228.929688 143.164062 228.929688 143.121094 L 228.929688 133.542969 C 228.929688 133.355469 228.769531 133.199219 228.589844 133.199219 L 225.183594 133.199219 C 225.003906 133.199219 224.820312 133.355469 224.820312 133.542969 Z M 224.820312 133.542969 "></path> -->
  </g>
</svg>
